<?xml version="1.0" encoding="UTF-8" standalone="no"?><svg xmlns="http://www.w3.org/2000/svg" xmlns:xlink="http://www.w3.org/1999/xlink" contentScriptType="application/ecmascript" contentStyleType="text/css" height="895px" preserveAspectRatio="none" style="width:1238px;height:895px;" version="1.1" viewBox="0 0 1238 895" width="1238px" zoomAndPan="magnify"><defs><filter height="300%" id="f9txaqmg7icsy" width="300%" x="-1" y="-1"><feGaussianBlur result="blurOut" stdDeviation="2.0"/><feColorMatrix in="blurOut" result="blurOut2" type="matrix" values="0 0 0 0 0 0 0 0 0 0 0 0 0 0 0 0 0 0 .4 0"/><feOffset dx="4.0" dy="4.0" in="blurOut2" result="blurOut3"/><feBlend in="SourceGraphic" in2="blurOut3" mode="normal"/></filter></defs><g><text fill="#000000" font-family="sans-serif" font-size="14" font-weight="bold" lengthAdjust="spacingAndGlyphs" textLength="112" x="563.5" y="24.5332">Startup Process</text><line style="stroke: #A80036; stroke-width: 1.0; stroke-dasharray: 5.0,5.0;" x1="25" x2="25" y1="119.2188" y2="806.9531"/><line style="stroke: #A80036; stroke-width: 1.0; stroke-dasharray: 5.0,5.0;" x1="114" x2="114" y1="119.2188" y2="806.9531"/><line style="stroke: #A80036; stroke-width: 1.0; stroke-dasharray: 5.0,5.0;" x1="300" x2="300" y1="119.2188" y2="806.9531"/><line style="stroke: #A80036; stroke-width: 1.0; stroke-dasharray: 5.0,5.0;" x1="427" x2="427" y1="119.2188" y2="806.9531"/><line style="stroke: #A80036; stroke-width: 1.0; stroke-dasharray: 5.0,5.0;" x1="523" x2="523" y1="119.2188" y2="806.9531"/><line style="stroke: #A80036; stroke-width: 1.0; stroke-dasharray: 5.0,5.0;" x1="660" x2="660" y1="119.2188" y2="806.9531"/><line style="stroke: #A80036; stroke-width: 1.0; stroke-dasharray: 5.0,5.0;" x1="893" x2="893" y1="119.2188" y2="806.9531"/><line style="stroke: #A80036; stroke-width: 1.0; stroke-dasharray: 5.0,5.0;" x1="1042" x2="1042" y1="119.2188" y2="806.9531"/><line style="stroke: #A80036; stroke-width: 1.0; stroke-dasharray: 5.0,5.0;" x1="1176" x2="1176" y1="119.2188" y2="806.9531"/><text fill="#000000" font-family="sans-serif" font-size="14" lengthAdjust="spacingAndGlyphs" textLength="29" x="8" y="116.1426">User</text><ellipse cx="25.5" cy="44.6094" fill="#FEFECE" filter="url(#f9txaqmg7icsy)" rx="8" ry="8" style="stroke: #A80036; stroke-width: 2.0;"/><path d="M25.5,52.6094 L25.5,79.6094 M12.5,60.6094 L38.5,60.6094 M25.5,79.6094 L12.5,94.6094 M25.5,79.6094 L38.5,94.6094 " fill="none" filter="url(#f9txaqmg7icsy)" style="stroke: #A80036; stroke-width: 2.0;"/><text fill="#000000" font-family="sans-serif" font-size="14" lengthAdjust="spacingAndGlyphs" textLength="29" x="8" y="820.4863">User</text><ellipse cx="25.5" cy="833.5625" fill="#FEFECE" filter="url(#f9txaqmg7icsy)" rx="8" ry="8" style="stroke: #A80036; stroke-width: 2.0;"/><path d="M25.5,841.5625 L25.5,868.5625 M12.5,849.5625 L38.5,849.5625 M25.5,868.5625 L12.5,883.5625 M25.5,868.5625 L38.5,883.5625 " fill="none" filter="url(#f9txaqmg7icsy)" style="stroke: #A80036; stroke-width: 2.0;"/><rect fill="#FEFECE" filter="url(#f9txaqmg7icsy)" height="31.6094" style="stroke: #A80036; stroke-width: 1.5;" width="119" x="53" y="82.6094"/><text fill="#000000" font-family="sans-serif" font-size="14" lengthAdjust="spacingAndGlyphs" textLength="105" x="60" y="104.1426">Local Filesystem</text><rect fill="#FEFECE" filter="url(#f9txaqmg7icsy)" height="31.6094" style="stroke: #A80036; stroke-width: 1.5;" width="119" x="53" y="805.9531"/><text fill="#000000" font-family="sans-serif" font-size="14" lengthAdjust="spacingAndGlyphs" textLength="105" x="60" y="827.4863">Local Filesystem</text><rect fill="#FEFECE" filter="url(#f9txaqmg7icsy)" height="31.6094" style="stroke: #A80036; stroke-width: 1.5;" width="65" x="266" y="82.6094"/><text fill="#000000" font-family="sans-serif" font-size="14" lengthAdjust="spacingAndGlyphs" textLength="51" x="273" y="104.1426">Browser</text><rect fill="#FEFECE" filter="url(#f9txaqmg7icsy)" height="31.6094" style="stroke: #A80036; stroke-width: 1.5;" width="65" x="266" y="805.9531"/><text fill="#000000" font-family="sans-serif" font-size="14" lengthAdjust="spacingAndGlyphs" textLength="51" x="273" y="827.4863">Browser</text><rect fill="#FEFECE" filter="url(#f9txaqmg7icsy)" height="31.6094" style="stroke: #A80036; stroke-width: 1.5;" width="83" x="384" y="82.6094"/><text fill="#000000" font-family="sans-serif" font-size="14" lengthAdjust="spacingAndGlyphs" textLength="69" x="391" y="104.1426">Webserver</text><rect fill="#FEFECE" filter="url(#f9txaqmg7icsy)" height="31.6094" style="stroke: #A80036; stroke-width: 1.5;" width="83" x="384" y="805.9531"/><text fill="#000000" font-family="sans-serif" font-size="14" lengthAdjust="spacingAndGlyphs" textLength="69" x="391" y="827.4863">Webserver</text><rect fill="#FEFECE" filter="url(#f9txaqmg7icsy)" height="31.6094" style="stroke: #A80036; stroke-width: 1.5;" width="80" x="481" y="82.6094"/><text fill="#000000" font-family="sans-serif" font-size="14" lengthAdjust="spacingAndGlyphs" textLength="66" x="488" y="104.1426">React App</text><rect fill="#FEFECE" filter="url(#f9txaqmg7icsy)" height="31.6094" style="stroke: #A80036; stroke-width: 1.5;" width="80" x="481" y="805.9531"/><text fill="#000000" font-family="sans-serif" font-size="14" lengthAdjust="spacingAndGlyphs" textLength="66" x="488" y="827.4863">React App</text><rect fill="#FEFECE" filter="url(#f9txaqmg7icsy)" height="31.6094" style="stroke: #A80036; stroke-width: 1.5;" width="92" x="612" y="82.6094"/><text fill="#000000" font-family="sans-serif" font-size="14" lengthAdjust="spacingAndGlyphs" textLength="78" x="619" y="104.1426">Redux Store</text><rect fill="#FEFECE" filter="url(#f9txaqmg7icsy)" height="31.6094" style="stroke: #A80036; stroke-width: 1.5;" width="92" x="612" y="805.9531"/><text fill="#000000" font-family="sans-serif" font-size="14" lengthAdjust="spacingAndGlyphs" textLength="78" x="619" y="827.4863">Redux Store</text><rect fill="#FEFECE" filter="url(#f9txaqmg7icsy)" height="31.6094" style="stroke: #A80036; stroke-width: 1.5;" width="136" x="823" y="82.6094"/><text fill="#000000" font-family="sans-serif" font-size="14" lengthAdjust="spacingAndGlyphs" textLength="122" x="830" y="104.1426">Audio Management</text><rect fill="#FEFECE" filter="url(#f9txaqmg7icsy)" height="31.6094" style="stroke: #A80036; stroke-width: 1.5;" width="136" x="823" y="805.9531"/><text fill="#000000" font-family="sans-serif" font-size="14" lengthAdjust="spacingAndGlyphs" textLength="122" x="830" y="827.4863">Audio Management</text><rect fill="#FEFECE" filter="url(#f9txaqmg7icsy)" height="31.6094" style="stroke: #A80036; stroke-width: 1.5;" width="135" x="973" y="82.6094"/><text fill="#000000" font-family="sans-serif" font-size="14" lengthAdjust="spacingAndGlyphs" textLength="121" x="980" y="104.1426">Peaks.js Waveform</text><rect fill="#FEFECE" filter="url(#f9txaqmg7icsy)" height="31.6094" style="stroke: #A80036; stroke-width: 1.5;" width="135" x="973" y="805.9531"/><text fill="#000000" font-family="sans-serif" font-size="14" lengthAdjust="spacingAndGlyphs" textLength="121" x="980" y="827.4863">Peaks.js Waveform</text><rect fill="#FEFECE" filter="url(#f9txaqmg7icsy)" height="31.6094" style="stroke: #A80036; stroke-width: 1.5;" width="105" x="1122" y="82.6094"/><text fill="#000000" font-family="sans-serif" font-size="14" lengthAdjust="spacingAndGlyphs" textLength="91" x="1129" y="104.1426">Tone.js Player</text><rect fill="#FEFECE" filter="url(#f9txaqmg7icsy)" height="31.6094" style="stroke: #A80036; stroke-width: 1.5;" width="105" x="1122" y="805.9531"/><text fill="#000000" font-family="sans-serif" font-size="14" lengthAdjust="spacingAndGlyphs" textLength="91" x="1129" y="827.4863">Tone.js Player</text><polygon fill="#A80036" points="288.5,147.5703,298.5,151.5703,288.5,155.5703,292.5,151.5703" style="stroke: #A80036; stroke-width: 1.0;"/><line style="stroke: #A80036; stroke-width: 1.0;" x1="25.5" x2="294.5" y1="151.5703" y2="151.5703"/><text fill="#000000" font-family="sans-serif" font-size="13" lengthAdjust="spacingAndGlyphs" textLength="78" x="32.5" y="146.7139">Open App Url</text><polygon fill="#A80036" points="415.5,177.9219,425.5,181.9219,415.5,185.9219,419.5,181.9219" style="stroke: #A80036; stroke-width: 1.0;"/><line style="stroke: #A80036; stroke-width: 1.0;" x1="300.5" x2="421.5" y1="181.9219" y2="181.9219"/><text fill="#000000" font-family="sans-serif" font-size="13" lengthAdjust="spacingAndGlyphs" textLength="103" x="307.5" y="177.0654">Initial http request</text><polygon fill="#A80036" points="311.5,208.2734,301.5,212.2734,311.5,216.2734,307.5,212.2734" style="stroke: #A80036; stroke-width: 1.0;"/><line style="stroke: #A80036; stroke-width: 1.0;" x1="305.5" x2="426.5" y1="212.2734" y2="212.2734"/><text fill="#000000" font-family="sans-serif" font-size="13" lengthAdjust="spacingAndGlyphs" textLength="63" x="317.5" y="207.417">Deliver app</text><polygon fill="#A80036" points="511,238.625,521,242.625,511,246.625,515,242.625" style="stroke: #A80036; stroke-width: 1.0;"/><line style="stroke: #A80036; stroke-width: 1.0;" x1="300.5" x2="517" y1="242.625" y2="242.625"/><text fill="#000000" font-family="sans-serif" font-size="13" lengthAdjust="spacingAndGlyphs" textLength="72" x="307.5" y="237.7686">Initialize app</text><polygon fill="#A80036" points="648,268.9766,658,272.9766,648,276.9766,652,272.9766" style="stroke: #A80036; stroke-width: 1.0;"/><line style="stroke: #A80036; stroke-width: 1.0;" x1="523" x2="654" y1="272.9766" y2="272.9766"/><text fill="#000000" font-family="sans-serif" font-size="13" lengthAdjust="spacingAndGlyphs" textLength="80" x="530" y="268.1201">Initialize store</text><polygon fill="#A80036" points="534,299.3281,524,303.3281,534,307.3281,530,303.3281" style="stroke: #A80036; stroke-width: 1.0;"/><line style="stroke: #A80036; stroke-width: 1.0;" x1="528" x2="659" y1="303.3281" y2="303.3281"/><text fill="#000000" font-family="sans-serif" font-size="13" lengthAdjust="spacingAndGlyphs" textLength="113" x="540" y="298.4717">Return default store</text><polygon fill="#A80036" points="311.5,329.6797,301.5,333.6797,311.5,337.6797,307.5,333.6797" style="stroke: #A80036; stroke-width: 1.0;"/><line style="stroke: #A80036; stroke-width: 1.0;" x1="305.5" x2="522" y1="333.6797" y2="333.6797"/><text fill="#000000" font-family="sans-serif" font-size="13" lengthAdjust="spacingAndGlyphs" textLength="103" x="317.5" y="328.8232">Render start page</text><polygon fill="#A80036" points="36.5,360.0313,26.5,364.0313,36.5,368.0313,32.5,364.0313" style="stroke: #A80036; stroke-width: 1.0;"/><line style="stroke: #A80036; stroke-width: 1.0;" x1="30.5" x2="299.5" y1="364.0313" y2="364.0313"/><text fill="#000000" font-family="sans-serif" font-size="13" lengthAdjust="spacingAndGlyphs" textLength="105" x="42.5" y="359.1748">Display start page</text><polygon fill="#A80036" points="288.5,390.3828,298.5,394.3828,288.5,398.3828,292.5,394.3828" style="stroke: #A80036; stroke-width: 1.0;"/><line style="stroke: #A80036; stroke-width: 1.0;" x1="25.5" x2="294.5" y1="394.3828" y2="394.3828"/><text fill="#000000" font-family="sans-serif" font-size="13" lengthAdjust="spacingAndGlyphs" textLength="108" x="32.5" y="389.5264">Create new project</text><polygon fill="#A80036" points="125.5,420.7344,115.5,424.7344,125.5,428.7344,121.5,424.7344" style="stroke: #A80036; stroke-width: 1.0;"/><line style="stroke: #A80036; stroke-width: 1.0;" x1="119.5" x2="299.5" y1="424.7344" y2="424.7344"/><text fill="#000000" font-family="sans-serif" font-size="13" lengthAdjust="spacingAndGlyphs" textLength="162" x="131.5" y="419.8779">Aquire link to local audio file</text><polygon fill="#A80036" points="288.5,451.0859,298.5,455.0859,288.5,459.0859,292.5,455.0859" style="stroke: #A80036; stroke-width: 1.0;"/><line style="stroke: #A80036; stroke-width: 1.0;" x1="114.5" x2="294.5" y1="455.0859" y2="455.0859"/><text fill="#000000" font-family="sans-serif" font-size="13" lengthAdjust="spacingAndGlyphs" textLength="124" x="121.5" y="450.2295">Return local audio file</text><polygon fill="#A80036" points="511,481.4375,521,485.4375,511,489.4375,515,485.4375" style="stroke: #A80036; stroke-width: 1.0;"/><line style="stroke: #A80036; stroke-width: 1.0;" x1="300.5" x2="517" y1="485.4375" y2="485.4375"/><text fill="#000000" font-family="sans-serif" font-size="13" lengthAdjust="spacingAndGlyphs" textLength="178" x="307.5" y="480.5811">Read audio file into Audiobuffer</text><polygon fill="#A80036" points="881,511.7891,891,515.7891,881,519.7891,885,515.7891" style="stroke: #A80036; stroke-width: 1.0;"/><line style="stroke: #A80036; stroke-width: 1.0;" x1="523" x2="887" y1="515.7891" y2="515.7891"/><text fill="#000000" font-family="sans-serif" font-size="13" lengthAdjust="spacingAndGlyphs" textLength="159" x="530" y="510.9326">Initialize AudioManagement</text><polygon fill="#A80036" points="1030.5,542.1406,1040.5,546.1406,1030.5,550.1406,1034.5,546.1406" style="stroke: #A80036; stroke-width: 1.0;"/><line style="stroke: #A80036; stroke-width: 1.0;" x1="893" x2="1036.5" y1="546.1406" y2="546.1406"/><text fill="#000000" font-family="sans-serif" font-size="13" lengthAdjust="spacingAndGlyphs" textLength="83" x="900" y="541.2842">Initialize Wave</text><polygon fill="#A80036" points="904,572.4922,894,576.4922,904,580.4922,900,576.4922" style="stroke: #A80036; stroke-width: 1.0;"/><line style="stroke: #A80036; stroke-width: 1.0;" x1="898" x2="1041.5" y1="576.4922" y2="576.4922"/><text fill="#000000" font-family="sans-serif" font-size="13" lengthAdjust="spacingAndGlyphs" textLength="70" x="910" y="571.6357">Init Instance</text><polygon fill="#A80036" points="1164.5,602.8438,1174.5,606.8438,1164.5,610.8438,1168.5,606.8438" style="stroke: #A80036; stroke-width: 1.0;"/><line style="stroke: #A80036; stroke-width: 1.0;" x1="893" x2="1170.5" y1="606.8438" y2="606.8438"/><text fill="#000000" font-family="sans-serif" font-size="13" lengthAdjust="spacingAndGlyphs" textLength="58" x="900" y="601.9873">Init Player</text><polygon fill="#A80036" points="904,633.1953,894,637.1953,904,641.1953,900,637.1953" style="stroke: #A80036; stroke-width: 1.0;"/><line style="stroke: #A80036; stroke-width: 1.0;" x1="898" x2="1175.5" y1="637.1953" y2="637.1953"/><text fill="#000000" font-family="sans-serif" font-size="13" lengthAdjust="spacingAndGlyphs" textLength="37" x="910" y="632.3389">Player</text><polygon fill="#A80036" points="1030.5,663.5469,1040.5,667.5469,1030.5,671.5469,1034.5,667.5469" style="stroke: #A80036; stroke-width: 1.0;"/><line style="stroke: #A80036; stroke-width: 1.0;" x1="893" x2="1036.5" y1="667.5469" y2="667.5469"/><text fill="#000000" font-family="sans-serif" font-size="13" lengthAdjust="spacingAndGlyphs" textLength="88" x="900" y="662.6904">Replace Player</text><polygon fill="#A80036" points="904,693.8984,894,697.8984,904,701.8984,900,697.8984" style="stroke: #A80036; stroke-width: 1.0;"/><line style="stroke: #A80036; stroke-width: 1.0;" x1="898" x2="1041.5" y1="697.8984" y2="697.8984"/><text fill="#000000" font-family="sans-serif" font-size="13" lengthAdjust="spacingAndGlyphs" textLength="41" x="910" y="693.042">PLayer</text><polygon fill="#A80036" points="671,724.25,661,728.25,671,732.25,667,728.25" style="stroke: #A80036; stroke-width: 1.0;"/><line style="stroke: #A80036; stroke-width: 1.0;" x1="665" x2="892" y1="728.25" y2="728.25"/><text fill="#000000" font-family="sans-serif" font-size="13" lengthAdjust="spacingAndGlyphs" textLength="209" x="677" y="723.3936">Save Measures based on initial bpm</text><polygon fill="#A80036" points="1030.5,754.6016,1040.5,758.6016,1030.5,762.6016,1034.5,758.6016" style="stroke: #A80036; stroke-width: 1.0;"/><line style="stroke: #A80036; stroke-width: 1.0;" x1="660" x2="1036.5" y1="758.6016" y2="758.6016"/><text fill="#000000" font-family="sans-serif" font-size="13" lengthAdjust="spacingAndGlyphs" textLength="96" x="667" y="753.7451">Inform Waveform</text><polygon fill="#A80036" points="311.5,784.9531,301.5,788.9531,311.5,792.9531,307.5,788.9531" style="stroke: #A80036; stroke-width: 1.0;"/><line style="stroke: #A80036; stroke-width: 1.0;" x1="305.5" x2="1041.5" y1="788.9531" y2="788.9531"/><text fill="#000000" font-family="sans-serif" font-size="13" lengthAdjust="spacingAndGlyphs" textLength="113" x="317.5" y="784.0967">Rerender measures</text><!--
@startuml Sequence Diagrams

title     Startup Process

actor User 
participant "Local Filesystem" as File
participant Browser
participant Webserver 
participant "React App" as App
participant "Redux Store" as Store
participant "Audio Management" as Audio
participant "Peaks.js Waveform" as Wave
participant "Tone.js Player" as Player

User -> Browser : Open App Url
Browser -> Webserver : Initial http request
Webserver -> Browser : Deliver app
Browser -> App : Initialize app
App -> Store : Initialize store
App <- Store : Return default store
App -> Browser : Render start page
Browser -> User : Display start page
User -> Browser : Create new project
Browser -> File: Aquire link to local audio file 
File -> Browser: Return local audio file
Browser -> App : Read audio file into Audiobuffer
App -> Audio: Initialize AudioManagement
Audio -> Wave: Initialize Wave
Audio <- Wave: Init Instance
Audio -> Player: Init Player
Audio <- Player: Player
Audio -> Wave: Replace Player
Audio <- Wave: PLayer
Audio -> Store: Save Measures based on initial bpm
Store -> Wave: Inform Waveform
Browser <- Wave: Rerender measures
@enduml

PlantUML version 1.2019.09(Tue Aug 27 01:19:51 KST 2019)
(GPL source distribution)
Java Runtime: Java(TM) SE Runtime Environment
JVM: Java HotSpot(TM) 64-Bit Server VM
Java Version: 10.0.2+13
Operating System: Windows 10
OS Version: 10.0
Default Encoding: Cp1252
Language: de
Country: DE
--></g></svg>