<?xml version="1.0" encoding="UTF-8" standalone="no"?><svg xmlns="http://www.w3.org/2000/svg" xmlns:xlink="http://www.w3.org/1999/xlink" contentScriptType="application/ecmascript" contentStyleType="text/css" height="1252px" preserveAspectRatio="none" style="width:275px;height:1252px;" version="1.1" viewBox="0 0 275 1252" width="275px" zoomAndPan="magnify"><defs><filter height="300%" id="f1hvj69u121q0r" width="300%" x="-1" y="-1"><feGaussianBlur result="blurOut" stdDeviation="2.0"/><feColorMatrix in="blurOut" result="blurOut2" type="matrix" values="0 0 0 0 0 0 0 0 0 0 0 0 0 0 0 0 0 0 .4 0"/><feOffset dx="4.0" dy="4.0" in="blurOut2" result="blurOut3"/><feBlend in="SourceGraphic" in2="blurOut3" mode="normal"/></filter></defs><g><text fill="#000000" font-family="sans-serif" font-size="18" lengthAdjust="spacingAndGlyphs" textLength="132" x="70.5" y="28.6855">Application Build</text><ellipse cx="137" cy="42.6406" fill="#000000" filter="url(#f1hvj69u121q0r)" rx="10" ry="10" style="stroke: none; stroke-width: 1.0;"/><rect fill="#FEFECE" filter="url(#f1hvj69u121q0r)" height="35.0938" rx="12.5" ry="12.5" style="stroke: #A80036; stroke-width: 1.5;" width="254" x="10" y="72.6406"/><text fill="#000000" font-family="sans-serif" font-size="12" lengthAdjust="spacingAndGlyphs" textLength="234" x="20" y="95.0977">Get hash and description of last git commit</text><ellipse cx="137" cy="186.6523" fill="#FFFFFF" filter="url(#f1hvj69u121q0r)" rx="10" ry="10" style="stroke: #000000; stroke-width: 1.5;"/><line style="stroke: #000000; stroke-width: 2.5;" x1="130.8128" x2="143.1872" y1="180.4652" y2="192.8395"/><line style="stroke: #000000; stroke-width: 2.5;" x1="143.1872" x2="130.8128" y1="180.4652" y2="192.8395"/><polygon fill="#FEFECE" filter="url(#f1hvj69u121q0r)" points="82.5,127.7344,191.5,127.7344,203.5,139.7344,191.5,151.7344,82.5,151.7344,70.5,139.7344,82.5,127.7344" style="stroke: #A80036; stroke-width: 1.5;"/><text fill="#000000" font-family="sans-serif" font-size="11" lengthAdjust="spacingAndGlyphs" textLength="18" x="141" y="163.1533">yes</text><text fill="#000000" font-family="sans-serif" font-size="11" lengthAdjust="spacingAndGlyphs" textLength="109" x="82.5" y="144.2354">git cli execution failed?</text><text fill="#000000" font-family="sans-serif" font-size="11" lengthAdjust="spacingAndGlyphs" textLength="12" x="203.5" y="137.3174">no</text><rect fill="#FEFECE" filter="url(#f1hvj69u121q0r)" height="35.0938" rx="12.5" ry="12.5" style="stroke: #A80036; stroke-width: 1.5;" width="137" x="68.5" y="238.6523"/><text fill="#000000" font-family="sans-serif" font-size="12" lengthAdjust="spacingAndGlyphs" textLength="117" x="78.5" y="261.1094">Run default app build</text><ellipse cx="137" cy="352.6641" fill="#FFFFFF" filter="url(#f1hvj69u121q0r)" rx="10" ry="10" style="stroke: #000000; stroke-width: 1.5;"/><line style="stroke: #000000; stroke-width: 2.5;" x1="130.8128" x2="143.1872" y1="346.4769" y2="358.8512"/><line style="stroke: #000000; stroke-width: 2.5;" x1="143.1872" x2="130.8128" y1="346.4769" y2="358.8512"/><polygon fill="#FEFECE" filter="url(#f1hvj69u121q0r)" points="94,293.7461,180,293.7461,192,305.7461,180,317.7461,94,317.7461,82,305.7461,94,293.7461" style="stroke: #A80036; stroke-width: 1.5;"/><text fill="#000000" font-family="sans-serif" font-size="11" lengthAdjust="spacingAndGlyphs" textLength="18" x="141" y="329.165">yes</text><text fill="#000000" font-family="sans-serif" font-size="11" lengthAdjust="spacingAndGlyphs" textLength="86" x="94" y="310.2471">compilation error?</text><text fill="#000000" font-family="sans-serif" font-size="11" lengthAdjust="spacingAndGlyphs" textLength="12" x="192" y="303.3291">no</text><rect fill="#FEFECE" filter="url(#f1hvj69u121q0r)" height="35.0938" rx="12.5" ry="12.5" style="stroke: #A80036; stroke-width: 1.5;" width="205" x="34.5" y="404.6641"/><text fill="#000000" font-family="sans-serif" font-size="12" lengthAdjust="spacingAndGlyphs" textLength="185" x="44.5" y="427.1211">Run static code analysis via eslint</text><ellipse cx="137" cy="518.6758" fill="#FFFFFF" filter="url(#f1hvj69u121q0r)" rx="10" ry="10" style="stroke: #000000; stroke-width: 1.5;"/><line style="stroke: #000000; stroke-width: 2.5;" x1="130.8128" x2="143.1872" y1="512.4886" y2="524.863"/><line style="stroke: #000000; stroke-width: 2.5;" x1="143.1872" x2="130.8128" y1="512.4886" y2="524.863"/><polygon fill="#FEFECE" filter="url(#f1hvj69u121q0r)" points="91.5,459.7578,182.5,459.7578,194.5,471.7578,182.5,483.7578,91.5,483.7578,79.5,471.7578,91.5,459.7578" style="stroke: #A80036; stroke-width: 1.5;"/><text fill="#000000" font-family="sans-serif" font-size="11" lengthAdjust="spacingAndGlyphs" textLength="18" x="141" y="495.1768">yes</text><text fill="#000000" font-family="sans-serif" font-size="11" lengthAdjust="spacingAndGlyphs" textLength="91" x="91.5" y="476.2588">code format error?</text><text fill="#000000" font-family="sans-serif" font-size="11" lengthAdjust="spacingAndGlyphs" textLength="12" x="194.5" y="469.3408">no</text><rect fill="#FEFECE" filter="url(#f1hvj69u121q0r)" height="35.0938" rx="12.5" ry="12.5" style="stroke: #A80036; stroke-width: 1.5;" width="129" x="72.5" y="570.6758"/><text fill="#000000" font-family="sans-serif" font-size="12" lengthAdjust="spacingAndGlyphs" textLength="109" x="82.5" y="593.1328">Run storybook build</text><ellipse cx="137" cy="684.6875" fill="#FFFFFF" filter="url(#f1hvj69u121q0r)" rx="10" ry="10" style="stroke: #000000; stroke-width: 1.5;"/><line style="stroke: #000000; stroke-width: 2.5;" x1="130.8128" x2="143.1872" y1="678.5003" y2="690.8747"/><line style="stroke: #000000; stroke-width: 2.5;" x1="143.1872" x2="130.8128" y1="678.5003" y2="690.8747"/><polygon fill="#FEFECE" filter="url(#f1hvj69u121q0r)" points="94,625.7695,180,625.7695,192,637.7695,180,649.7695,94,649.7695,82,637.7695,94,625.7695" style="stroke: #A80036; stroke-width: 1.5;"/><text fill="#000000" font-family="sans-serif" font-size="11" lengthAdjust="spacingAndGlyphs" textLength="18" x="141" y="661.1885">yes</text><text fill="#000000" font-family="sans-serif" font-size="11" lengthAdjust="spacingAndGlyphs" textLength="86" x="94" y="642.2705">compilation error?</text><text fill="#000000" font-family="sans-serif" font-size="11" lengthAdjust="spacingAndGlyphs" textLength="12" x="192" y="635.3525">no</text><rect fill="#FEFECE" filter="url(#f1hvj69u121q0r)" height="35.0938" rx="12.5" ry="12.5" style="stroke: #A80036; stroke-width: 1.5;" width="99" x="87.5" y="785.6055"/><text fill="#000000" font-family="sans-serif" font-size="12" lengthAdjust="spacingAndGlyphs" textLength="79" x="97.5" y="808.0625">Run Jest tests</text><ellipse cx="137" cy="899.6172" fill="#FFFFFF" filter="url(#f1hvj69u121q0r)" rx="10" ry="10" style="stroke: #000000; stroke-width: 1.5;"/><line style="stroke: #000000; stroke-width: 2.5;" x1="130.8128" x2="143.1872" y1="893.43" y2="905.8044"/><line style="stroke: #000000; stroke-width: 2.5;" x1="143.1872" x2="130.8128" y1="893.43" y2="905.8044"/><polygon fill="#FEFECE" filter="url(#f1hvj69u121q0r)" points="107.5,840.6992,166.5,840.6992,178.5,852.6992,166.5,864.6992,107.5,864.6992,95.5,852.6992,107.5,840.6992" style="stroke: #A80036; stroke-width: 1.5;"/><text fill="#000000" font-family="sans-serif" font-size="11" lengthAdjust="spacingAndGlyphs" textLength="18" x="141" y="876.1182">yes</text><text fill="#000000" font-family="sans-serif" font-size="11" lengthAdjust="spacingAndGlyphs" textLength="59" x="107.5" y="857.2002">failed tests?</text><text fill="#000000" font-family="sans-serif" font-size="11" lengthAdjust="spacingAndGlyphs" textLength="12" x="178.5" y="850.2822">no</text><ellipse cx="212.5" cy="852.6992" fill="#FFFFFF" filter="url(#f1hvj69u121q0r)" rx="11" ry="11" style="stroke: #000000; stroke-width: 1.0;"/><ellipse cx="212.5" cy="852.6992" fill="#000000" rx="6" ry="6" style="stroke: #7F7F7F; stroke-width: 1.0;"/><polygon fill="#FEFECE" filter="url(#f1hvj69u121q0r)" points="110.5,736.6875,163.5,736.6875,175.5,748.6875,163.5,760.6875,110.5,760.6875,98.5,748.6875,110.5,736.6875" style="stroke: #A80036; stroke-width: 1.5;"/><text fill="#000000" font-family="sans-serif" font-size="11" lengthAdjust="spacingAndGlyphs" textLength="12" x="141" y="772.1064">no</text><text fill="#000000" font-family="sans-serif" font-size="11" lengthAdjust="spacingAndGlyphs" textLength="53" x="110.5" y="753.1885">linux build?</text><text fill="#000000" font-family="sans-serif" font-size="11" lengthAdjust="spacingAndGlyphs" textLength="18" x="175.5" y="746.2705">yes</text><rect fill="#FEFECE" filter="url(#f1hvj69u121q0r)" height="35.0938" rx="12.5" ry="12.5" style="stroke: #A80036; stroke-width: 1.5;" width="207" x="33.5" y="951.6172"/><text fill="#000000" font-family="sans-serif" font-size="12" lengthAdjust="spacingAndGlyphs" textLength="187" x="43.5" y="974.0742">Run Jest tests with code coverage</text><ellipse cx="137" cy="1065.6289" fill="#FFFFFF" filter="url(#f1hvj69u121q0r)" rx="10" ry="10" style="stroke: #000000; stroke-width: 1.5;"/><line style="stroke: #000000; stroke-width: 2.5;" x1="130.8128" x2="143.1872" y1="1059.4417" y2="1071.8161"/><line style="stroke: #000000; stroke-width: 2.5;" x1="143.1872" x2="130.8128" y1="1059.4417" y2="1071.8161"/><polygon fill="#FEFECE" filter="url(#f1hvj69u121q0r)" points="107.5,1006.7109,166.5,1006.7109,178.5,1018.7109,166.5,1030.7109,107.5,1030.7109,95.5,1018.7109,107.5,1006.7109" style="stroke: #A80036; stroke-width: 1.5;"/><text fill="#000000" font-family="sans-serif" font-size="11" lengthAdjust="spacingAndGlyphs" textLength="18" x="141" y="1042.1299">yes</text><text fill="#000000" font-family="sans-serif" font-size="11" lengthAdjust="spacingAndGlyphs" textLength="59" x="107.5" y="1023.2119">failed tests?</text><text fill="#000000" font-family="sans-serif" font-size="11" lengthAdjust="spacingAndGlyphs" textLength="12" x="178.5" y="1016.2939">no</text><rect fill="#FEFECE" filter="url(#f1hvj69u121q0r)" height="35.0938" rx="12.5" ry="12.5" style="stroke: #A80036; stroke-width: 1.5;" width="232" x="21" y="1117.6289"/><text fill="#000000" font-family="sans-serif" font-size="12" lengthAdjust="spacingAndGlyphs" textLength="212" x="31" y="1140.0859">Upload coverage results to coveralls.io</text><ellipse cx="137" cy="1231.6406" fill="#FFFFFF" filter="url(#f1hvj69u121q0r)" rx="10" ry="10" style="stroke: #000000; stroke-width: 1.5;"/><line style="stroke: #000000; stroke-width: 2.5;" x1="130.8128" x2="143.1872" y1="1225.4534" y2="1237.8278"/><line style="stroke: #000000; stroke-width: 2.5;" x1="143.1872" x2="130.8128" y1="1225.4534" y2="1237.8278"/><polygon fill="#FEFECE" filter="url(#f1hvj69u121q0r)" points="103.5,1172.7227,170.5,1172.7227,182.5,1184.7227,170.5,1196.7227,103.5,1196.7227,91.5,1184.7227,103.5,1172.7227" style="stroke: #A80036; stroke-width: 1.5;"/><text fill="#000000" font-family="sans-serif" font-size="11" lengthAdjust="spacingAndGlyphs" textLength="18" x="141" y="1208.1416">yes</text><text fill="#000000" font-family="sans-serif" font-size="11" lengthAdjust="spacingAndGlyphs" textLength="67" x="103.5" y="1189.2236">upload failed?</text><text fill="#000000" font-family="sans-serif" font-size="11" lengthAdjust="spacingAndGlyphs" textLength="12" x="182.5" y="1182.3057">no</text><ellipse cx="216.5" cy="1184.7227" fill="#FFFFFF" filter="url(#f1hvj69u121q0r)" rx="11" ry="11" style="stroke: #000000; stroke-width: 1.0;"/><ellipse cx="216.5" cy="1184.7227" fill="#000000" rx="6" ry="6" style="stroke: #7F7F7F; stroke-width: 1.0;"/><line style="stroke: #A80036; stroke-width: 1.5;" x1="137" x2="137" y1="52.6406" y2="72.6406"/><polygon fill="#A80036" points="133,62.6406,137,72.6406,141,62.6406,137,66.6406" style="stroke: #A80036; stroke-width: 1.0;"/><line style="stroke: #A80036; stroke-width: 1.5;" x1="137" x2="137" y1="151.7344" y2="176.6523"/><polygon fill="#A80036" points="133,166.6523,137,176.6523,141,166.6523,137,170.6523" style="stroke: #A80036; stroke-width: 1.0;"/><line style="stroke: #A80036; stroke-width: 1.5;" x1="203.5" x2="215.5" y1="139.7344" y2="139.7344"/><polygon fill="#A80036" points="211.5,173.6523,215.5,183.6523,219.5,173.6523,215.5,177.6523" style="stroke: #A80036; stroke-width: 1.5;"/><line style="stroke: #A80036; stroke-width: 1.5;" x1="215.5" x2="215.5" y1="139.7344" y2="218.6523"/><line style="stroke: #A80036; stroke-width: 1.5;" x1="215.5" x2="137" y1="218.6523" y2="218.6523"/><line style="stroke: #A80036; stroke-width: 1.5;" x1="137" x2="137" y1="218.6523" y2="238.6523"/><polygon fill="#A80036" points="133,228.6523,137,238.6523,141,228.6523,137,232.6523" style="stroke: #A80036; stroke-width: 1.0;"/><line style="stroke: #A80036; stroke-width: 1.5;" x1="137" x2="137" y1="107.7344" y2="127.7344"/><polygon fill="#A80036" points="133,117.7344,137,127.7344,141,117.7344,137,121.7344" style="stroke: #A80036; stroke-width: 1.0;"/><line style="stroke: #A80036; stroke-width: 1.5;" x1="137" x2="137" y1="317.7461" y2="342.6641"/><polygon fill="#A80036" points="133,332.6641,137,342.6641,141,332.6641,137,336.6641" style="stroke: #A80036; stroke-width: 1.0;"/><line style="stroke: #A80036; stroke-width: 1.5;" x1="192" x2="204" y1="305.7461" y2="305.7461"/><polygon fill="#A80036" points="200,339.6641,204,349.6641,208,339.6641,204,343.6641" style="stroke: #A80036; stroke-width: 1.5;"/><line style="stroke: #A80036; stroke-width: 1.5;" x1="204" x2="204" y1="305.7461" y2="384.6641"/><line style="stroke: #A80036; stroke-width: 1.5;" x1="204" x2="137" y1="384.6641" y2="384.6641"/><line style="stroke: #A80036; stroke-width: 1.5;" x1="137" x2="137" y1="384.6641" y2="404.6641"/><polygon fill="#A80036" points="133,394.6641,137,404.6641,141,394.6641,137,398.6641" style="stroke: #A80036; stroke-width: 1.0;"/><line style="stroke: #A80036; stroke-width: 1.5;" x1="137" x2="137" y1="273.7461" y2="293.7461"/><polygon fill="#A80036" points="133,283.7461,137,293.7461,141,283.7461,137,287.7461" style="stroke: #A80036; stroke-width: 1.0;"/><line style="stroke: #A80036; stroke-width: 1.5;" x1="137" x2="137" y1="483.7578" y2="508.6758"/><polygon fill="#A80036" points="133,498.6758,137,508.6758,141,498.6758,137,502.6758" style="stroke: #A80036; stroke-width: 1.0;"/><line style="stroke: #A80036; stroke-width: 1.5;" x1="194.5" x2="206.5" y1="471.7578" y2="471.7578"/><polygon fill="#A80036" points="202.5,505.6758,206.5,515.6758,210.5,505.6758,206.5,509.6758" style="stroke: #A80036; stroke-width: 1.5;"/><line style="stroke: #A80036; stroke-width: 1.5;" x1="206.5" x2="206.5" y1="471.7578" y2="550.6758"/><line style="stroke: #A80036; stroke-width: 1.5;" x1="206.5" x2="137" y1="550.6758" y2="550.6758"/><line style="stroke: #A80036; stroke-width: 1.5;" x1="137" x2="137" y1="550.6758" y2="570.6758"/><polygon fill="#A80036" points="133,560.6758,137,570.6758,141,560.6758,137,564.6758" style="stroke: #A80036; stroke-width: 1.0;"/><line style="stroke: #A80036; stroke-width: 1.5;" x1="137" x2="137" y1="439.7578" y2="459.7578"/><polygon fill="#A80036" points="133,449.7578,137,459.7578,141,449.7578,137,453.7578" style="stroke: #A80036; stroke-width: 1.0;"/><line style="stroke: #A80036; stroke-width: 1.5;" x1="137" x2="137" y1="649.7695" y2="674.6875"/><polygon fill="#A80036" points="133,664.6875,137,674.6875,141,664.6875,137,668.6875" style="stroke: #A80036; stroke-width: 1.0;"/><line style="stroke: #A80036; stroke-width: 1.5;" x1="192" x2="204" y1="637.7695" y2="637.7695"/><polygon fill="#A80036" points="200,671.6875,204,681.6875,208,671.6875,204,675.6875" style="stroke: #A80036; stroke-width: 1.5;"/><line style="stroke: #A80036; stroke-width: 1.5;" x1="204" x2="204" y1="637.7695" y2="716.6875"/><line style="stroke: #A80036; stroke-width: 1.5;" x1="204" x2="137" y1="716.6875" y2="716.6875"/><line style="stroke: #A80036; stroke-width: 1.5;" x1="137" x2="137" y1="716.6875" y2="736.6875"/><polygon fill="#A80036" points="133,726.6875,137,736.6875,141,726.6875,137,730.6875" style="stroke: #A80036; stroke-width: 1.0;"/><line style="stroke: #A80036; stroke-width: 1.5;" x1="137" x2="137" y1="605.7695" y2="625.7695"/><polygon fill="#A80036" points="133,615.7695,137,625.7695,141,615.7695,137,619.7695" style="stroke: #A80036; stroke-width: 1.0;"/><line style="stroke: #A80036; stroke-width: 1.5;" x1="137" x2="137" y1="864.6992" y2="889.6172"/><polygon fill="#A80036" points="133,879.6172,137,889.6172,141,879.6172,137,883.6172" style="stroke: #A80036; stroke-width: 1.0;"/><line style="stroke: #A80036; stroke-width: 1.5;" x1="178.5" x2="201.5" y1="852.6992" y2="852.6992"/><polygon fill="#A80036" points="191.5,848.6992,201.5,852.6992,191.5,856.6992,195.5,852.6992" style="stroke: #A80036; stroke-width: 1.0;"/><line style="stroke: #A80036; stroke-width: 1.5;" x1="137" x2="137" y1="820.6992" y2="840.6992"/><polygon fill="#A80036" points="133,830.6992,137,840.6992,141,830.6992,137,834.6992" style="stroke: #A80036; stroke-width: 1.0;"/><line style="stroke: #A80036; stroke-width: 1.5;" x1="137" x2="137" y1="760.6875" y2="785.6055"/><polygon fill="#A80036" points="133,775.6055,137,785.6055,141,775.6055,137,779.6055" style="stroke: #A80036; stroke-width: 1.0;"/><line style="stroke: #A80036; stroke-width: 1.5;" x1="175.5" x2="245.5" y1="748.6875" y2="748.6875"/><polygon fill="#A80036" points="241.5,839.5703,245.5,849.5703,249.5,839.5703,245.5,843.5703" style="stroke: #A80036; stroke-width: 1.5;"/><line style="stroke: #A80036; stroke-width: 1.5;" x1="245.5" x2="245.5" y1="748.6875" y2="931.6172"/><line style="stroke: #A80036; stroke-width: 1.5;" x1="245.5" x2="137" y1="931.6172" y2="931.6172"/><line style="stroke: #A80036; stroke-width: 1.5;" x1="137" x2="137" y1="931.6172" y2="951.6172"/><polygon fill="#A80036" points="133,941.6172,137,951.6172,141,941.6172,137,945.6172" style="stroke: #A80036; stroke-width: 1.0;"/><line style="stroke: #A80036; stroke-width: 1.5;" x1="137" x2="137" y1="1030.7109" y2="1055.6289"/><polygon fill="#A80036" points="133,1045.6289,137,1055.6289,141,1045.6289,137,1049.6289" style="stroke: #A80036; stroke-width: 1.0;"/><line style="stroke: #A80036; stroke-width: 1.5;" x1="178.5" x2="190.5" y1="1018.7109" y2="1018.7109"/><polygon fill="#A80036" points="186.5,1052.6289,190.5,1062.6289,194.5,1052.6289,190.5,1056.6289" style="stroke: #A80036; stroke-width: 1.5;"/><line style="stroke: #A80036; stroke-width: 1.5;" x1="190.5" x2="190.5" y1="1018.7109" y2="1097.6289"/><line style="stroke: #A80036; stroke-width: 1.5;" x1="190.5" x2="137" y1="1097.6289" y2="1097.6289"/><line style="stroke: #A80036; stroke-width: 1.5;" x1="137" x2="137" y1="1097.6289" y2="1117.6289"/><polygon fill="#A80036" points="133,1107.6289,137,1117.6289,141,1107.6289,137,1111.6289" style="stroke: #A80036; stroke-width: 1.0;"/><line style="stroke: #A80036; stroke-width: 1.5;" x1="137" x2="137" y1="986.7109" y2="1006.7109"/><polygon fill="#A80036" points="133,996.7109,137,1006.7109,141,996.7109,137,1000.7109" style="stroke: #A80036; stroke-width: 1.0;"/><line style="stroke: #A80036; stroke-width: 1.5;" x1="137" x2="137" y1="1196.7227" y2="1221.6406"/><polygon fill="#A80036" points="133,1211.6406,137,1221.6406,141,1211.6406,137,1215.6406" style="stroke: #A80036; stroke-width: 1.0;"/><line style="stroke: #A80036; stroke-width: 1.5;" x1="182.5" x2="205.5" y1="1184.7227" y2="1184.7227"/><polygon fill="#A80036" points="195.5,1180.7227,205.5,1184.7227,195.5,1188.7227,199.5,1184.7227" style="stroke: #A80036; stroke-width: 1.0;"/><line style="stroke: #A80036; stroke-width: 1.5;" x1="137" x2="137" y1="1152.7227" y2="1172.7227"/><polygon fill="#A80036" points="133,1162.7227,137,1172.7227,141,1162.7227,137,1166.7227" style="stroke: #A80036; stroke-width: 1.0;"/><!--
@startuml Application build

title Application Build

start

:Get hash and description of last git commit;
if (git cli execution failed?) then (yes)
    end
else (no)
endif

:Run default app build;
if (compilation error?) then (yes)
    end
else (no)
endif

:Run static code analysis via eslint;
if (code format error?) then (yes)
    end
else (no)
endif

:Run storybook build;
if (compilation error?) then (yes)
    end
else (no)
endif

if (linux build?) then (yes)

else (no)
    :Run Jest tests;
    if (failed tests?) then (yes)
        end
    else (no)
    stop
    endif
endif

:Run Jest tests with code coverage;
if (failed tests?) then (yes)
    end
else (no)
endif

:Upload coverage results to coveralls.io;
if (upload failed?) then (yes)
    end
else (no)
    stop
endif


@enduml

PlantUML version 1.2019.06(Fri May 24 19:10:25 CEST 2019)
(GPL source distribution)
Java Runtime: OpenJDK Runtime Environment
JVM: OpenJDK 64-Bit Server VM
Java Version: 12.0.2+10
Operating System: Windows 10
OS Version: 10.0
Default Encoding: Cp1252
Language: de
Country: DE
--></g></svg>