<?xml version="1.0" encoding="UTF-8" standalone="no"?><svg xmlns="http://www.w3.org/2000/svg" xmlns:xlink="http://www.w3.org/1999/xlink" contentScriptType="application/ecmascript" contentStyleType="text/css" height="221px" preserveAspectRatio="none" style="width:750px;height:221px;" version="1.1" viewBox="0 0 750 221" width="750px" zoomAndPan="magnify"><defs><filter height="300%" id="fggmxlxe6zp7r" width="300%" x="-1" y="-1"><feGaussianBlur result="blurOut" stdDeviation="2.0"/><feColorMatrix in="blurOut" result="blurOut2" type="matrix" values="0 0 0 0 0 0 0 0 0 0 0 0 0 0 0 0 0 0 .4 0"/><feOffset dx="4.0" dy="4.0" in="blurOut2" result="blurOut3"/><feBlend in="SourceGraphic" in2="blurOut3" mode="normal"/></filter></defs><g><text fill="#000000" font-family="sans-serif" font-size="18" lengthAdjust="spacingAndGlyphs" textLength="175" x="293.5" y="18.6855">Deployment Overview</text><!--cluster https://tscz.github.io/transcribe/--><polygon fill="#FFFFFF" filter="url(#fggmxlxe6zp7r)" points="22,56.6406,32,46.6406,320,46.6406,320,199.6406,310,209.6406,22,209.6406,22,56.6406" style="stroke: #000000; stroke-width: 1.5;"/><line style="stroke: #000000; stroke-width: 1.5;" x1="310" x2="319" y1="56.6406" y2="47.6406"/><line style="stroke: #000000; stroke-width: 1.5;" x1="22" x2="310" y1="56.6406" y2="56.6406"/><line style="stroke: #000000; stroke-width: 1.5;" x1="310" x2="310" y1="56.6406" y2="209.6406"/><text fill="#000000" font-family="sans-serif" font-size="14" font-weight="bold" lengthAdjust="spacingAndGlyphs" textLength="222" x="56" y="74.1738">https://tscz.github.io/transcribe/</text><!--cluster Transcribe App--><polygon fill="#FFFFFF" filter="url(#fggmxlxe6zp7r)" points="50,95.6406,162,95.6406,169,119.25,291,119.25,291,185.6406,50,185.6406,50,95.6406" style="stroke: #000000; stroke-width: 1.5;"/><line style="stroke: #000000; stroke-width: 1.5;" x1="50" x2="169" y1="119.25" y2="119.25"/><text fill="#000000" font-family="sans-serif" font-size="14" font-weight="bold" lengthAdjust="spacingAndGlyphs" textLength="106" x="54" y="112.1738">Transcribe App</text><!--cluster https://transcribe-storybook.herokuapp.com--><polygon fill="#FFFFFF" filter="url(#fggmxlxe6zp7r)" points="344,56.6406,354,46.6406,728,46.6406,728,199.6406,718,209.6406,344,209.6406,344,56.6406" style="stroke: #000000; stroke-width: 1.5;"/><line style="stroke: #000000; stroke-width: 1.5;" x1="718" x2="727" y1="56.6406" y2="47.6406"/><line style="stroke: #000000; stroke-width: 1.5;" x1="344" x2="718" y1="56.6406" y2="56.6406"/><line style="stroke: #000000; stroke-width: 1.5;" x1="718" x2="718" y1="56.6406" y2="209.6406"/><text fill="#000000" font-family="sans-serif" font-size="14" font-weight="bold" lengthAdjust="spacingAndGlyphs" textLength="308" x="378" y="74.1738">https://transcribe-storybook.herokuapp.com</text><!--cluster Storybook App--><polygon fill="#FFFFFF" filter="url(#fggmxlxe6zp7r)" points="441,95.6406,549,95.6406,556,119.25,631,119.25,631,185.6406,441,185.6406,441,95.6406" style="stroke: #000000; stroke-width: 1.5;"/><line style="stroke: #000000; stroke-width: 1.5;" x1="441" x2="556" y1="119.25" y2="119.25"/><text fill="#000000" font-family="sans-serif" font-size="14" font-weight="bold" lengthAdjust="spacingAndGlyphs" textLength="102" x="445" y="112.1738">Storybook App</text><!--entity static/js/*.js--><rect fill="#FEFECE" filter="url(#fggmxlxe6zp7r)" height="37.6094" style="stroke: #A80036; stroke-width: 1.5;" width="90" x="185" y="131.6406"/><rect fill="#FEFECE" height="5" style="stroke: #A80036; stroke-width: 1.5;" width="10" x="180" y="136.6406"/><rect fill="#FEFECE" height="5" style="stroke: #A80036; stroke-width: 1.5;" width="10" x="180" y="159.25"/><text fill="#000000" font-family="sans-serif" font-size="14" lengthAdjust="spacingAndGlyphs" textLength="70" x="195" y="156.1738">static/js/*.js</text><!--entity index.html--><rect fill="#FEFECE" filter="url(#fggmxlxe6zp7r)" height="37.6094" style="stroke: #A80036; stroke-width: 1.5;" width="83" x="66.5" y="131.6406"/><rect fill="#FEFECE" height="5" style="stroke: #A80036; stroke-width: 1.5;" width="10" x="61.5" y="136.6406"/><rect fill="#FEFECE" height="5" style="stroke: #A80036; stroke-width: 1.5;" width="10" x="61.5" y="159.25"/><text fill="#000000" font-family="sans-serif" font-size="14" lengthAdjust="spacingAndGlyphs" textLength="63" x="76.5" y="156.1738">index.html</text><!--entity *.js--><rect fill="#FEFECE" filter="url(#fggmxlxe6zp7r)" height="37.6094" style="stroke: #A80036; stroke-width: 1.5;" width="39" x="575.5" y="131.6406"/><rect fill="#FEFECE" height="5" style="stroke: #A80036; stroke-width: 1.5;" width="10" x="570.5" y="136.6406"/><rect fill="#FEFECE" height="5" style="stroke: #A80036; stroke-width: 1.5;" width="10" x="570.5" y="159.25"/><text fill="#000000" font-family="sans-serif" font-size="14" lengthAdjust="spacingAndGlyphs" textLength="19" x="585.5" y="156.1738">*.js</text><!--entity anotherStartpage--><rect fill="#FEFECE" filter="url(#fggmxlxe6zp7r)" height="37.6094" style="stroke: #A80036; stroke-width: 1.5;" width="83" x="457.5" y="131.6406"/><rect fill="#FEFECE" height="5" style="stroke: #A80036; stroke-width: 1.5;" width="10" x="452.5" y="136.6406"/><rect fill="#FEFECE" height="5" style="stroke: #A80036; stroke-width: 1.5;" width="10" x="452.5" y="159.25"/><text fill="#000000" font-family="sans-serif" font-size="14" lengthAdjust="spacingAndGlyphs" textLength="63" x="467.5" y="156.1738">index.html</text><!--
@startuml Deployment Overview

title     Deployment Overview

node "https://tscz.github.io/transcribe/" {
    package "Transcribe App" {
        [static/js/*.js]
        [index.html]
    }
}

node "https://transcribe-storybook.herokuapp.com" {
    package "Storybook App" {
        [*.js]
        [index.html] as anotherStartpage
    }
}

@enduml

PlantUML version 1.2019.06(Fri May 24 19:10:25 CEST 2019)
(GPL source distribution)
Java Runtime: OpenJDK Runtime Environment
JVM: OpenJDK 64-Bit Server VM
Java Version: 12.0.2+10
Operating System: Windows 10
OS Version: 10.0
Default Encoding: Cp1252
Language: de
Country: DE
--></g></svg>