<?xml version="1.0" encoding="UTF-8" standalone="no"?><svg xmlns="http://www.w3.org/2000/svg" xmlns:xlink="http://www.w3.org/1999/xlink" contentScriptType="application/ecmascript" contentStyleType="text/css" height="546px" preserveAspectRatio="none" style="width:806px;height:546px;" version="1.1" viewBox="0 0 806 546" width="806px" zoomAndPan="magnify"><defs><filter height="300%" id="f127m0c8tn9uxu" width="300%" x="-1" y="-1"><feGaussianBlur result="blurOut" stdDeviation="2.0"/><feColorMatrix in="blurOut" result="blurOut2" type="matrix" values="0 0 0 0 0 0 0 0 0 0 0 0 0 0 0 0 0 0 .4 0"/><feOffset dx="4.0" dy="4.0" in="blurOut2" result="blurOut3"/><feBlend in="SourceGraphic" in2="blurOut3" mode="normal"/></filter></defs><g><text fill="#000000" font-family="sans-serif" font-size="18" lengthAdjust="spacingAndGlyphs" textLength="214" x="307.5" y="18.6855">Application State Overview</text><!--cluster Application--><rect fill="#FFFFFF" filter="url(#f127m0c8tn9uxu)" height="349" style="stroke: #000000; stroke-width: 1.5;" width="773" x="22" y="46.6406"/><path d="M110,47.6406 L110,57.25 L100,67.25 L22,67.25 " fill="none" style="stroke: #000000; stroke-width: 1.5;"/><text fill="#000000" font-family="sans-serif" font-size="14" font-weight="bold" lengthAdjust="spacingAndGlyphs" textLength="78" x="25" y="62.1738">Application</text><!--cluster Redux State--><polygon fill="#FFFFFF" filter="url(#f127m0c8tn9uxu)" points="214,90.6406,305,90.6406,312,114.25,680,114.25,680,248.6406,214,248.6406,214,90.6406" style="stroke: #000000; stroke-width: 1.5;"/><line style="stroke: #000000; stroke-width: 1.5;" x1="214" x2="312" y1="114.25" y2="114.25"/><text fill="#000000" font-family="sans-serif" font-size="14" font-weight="bold" lengthAdjust="spacingAndGlyphs" textLength="85" x="218" y="107.1738">Redux State</text><!--cluster Runtime State--><polygon fill="#FFFFFF" filter="url(#f127m0c8tn9uxu)" points="238,134.6406,342,134.6406,349,158.25,429,158.25,429,224.6406,238,224.6406,238,134.6406" style="stroke: #000000; stroke-width: 1.5;"/><line style="stroke: #000000; stroke-width: 1.5;" x1="238" x2="349" y1="158.25" y2="158.25"/><text fill="#000000" font-family="sans-serif" font-size="14" font-weight="bold" lengthAdjust="spacingAndGlyphs" textLength="98" x="242" y="151.1738">Runtime State</text><!--cluster Persisted State--><polygon fill="#FFFFFF" filter="url(#f127m0c8tn9uxu)" points="453,134.6406,566,134.6406,573,158.25,656,158.25,656,224.6406,453,224.6406,453,134.6406" style="stroke: #000000; stroke-width: 1.5;"/><line style="stroke: #000000; stroke-width: 1.5;" x1="453" x2="573" y1="158.25" y2="158.25"/><text fill="#000000" font-family="sans-serif" font-size="14" font-weight="bold" lengthAdjust="spacingAndGlyphs" textLength="107" x="457" y="151.1738">Persisted State</text><!--cluster AudioMiddleware--><polygon fill="#FFFFFF" filter="url(#f127m0c8tn9uxu)" points="221,281.6406,349,281.6406,356,305.25,597,305.25,597,371.6406,221,371.6406,221,281.6406" style="stroke: #000000; stroke-width: 1.5;"/><line style="stroke: #000000; stroke-width: 1.5;" x1="221" x2="356" y1="305.25" y2="305.25"/><text fill="#000000" font-family="sans-serif" font-size="14" font-weight="bold" lengthAdjust="spacingAndGlyphs" textLength="122" x="225" y="298.1738">AudioMiddleware</text><!--cluster DialogManagement--><polygon fill="#FFFFFF" filter="url(#f127m0c8tn9uxu)" points="46,281.6406,187,281.6406,194,305.25,197,305.25,197,371.6406,46,371.6406,46,281.6406" style="stroke: #000000; stroke-width: 1.5;"/><line style="stroke: #000000; stroke-width: 1.5;" x1="46" x2="194" y1="305.25" y2="305.25"/><text fill="#000000" font-family="sans-serif" font-size="14" font-weight="bold" lengthAdjust="spacingAndGlyphs" textLength="135" x="50" y="298.1738">DialogManagement</text><!--cluster Api--><polygon fill="#FFFFFF" filter="url(#f127m0c8tn9uxu)" points="621,281.6406,649,281.6406,656,305.25,771,305.25,771,371.6406,621,371.6406,621,281.6406" style="stroke: #000000; stroke-width: 1.5;"/><line style="stroke: #000000; stroke-width: 1.5;" x1="621" x2="656" y1="305.25" y2="305.25"/><text fill="#000000" font-family="sans-serif" font-size="14" font-weight="bold" lengthAdjust="spacingAndGlyphs" textLength="22" x="625" y="298.1738">Api</text><!--cluster File System--><rect fill="#FFFFFF" filter="url(#f127m0c8tn9uxu)" height="90" style="stroke: #000000; stroke-width: 1.5;" width="124" x="634" y="445.6406"/><path d="M724,446.6406 L724,456.25 L714,466.25 L634,466.25 " fill="none" style="stroke: #000000; stroke-width: 1.5;"/><text fill="#000000" font-family="sans-serif" font-size="14" font-weight="bold" lengthAdjust="spacingAndGlyphs" textLength="80" x="637" y="461.1738">File System</text><!--entity Dialogs--><rect fill="#FEFECE" filter="url(#f127m0c8tn9uxu)" height="37.6094" style="stroke: #A80036; stroke-width: 1.5;" width="67" x="254.5" y="170.6406"/><rect fill="#FEFECE" height="5" style="stroke: #A80036; stroke-width: 1.5;" width="10" x="249.5" y="175.6406"/><rect fill="#FEFECE" height="5" style="stroke: #A80036; stroke-width: 1.5;" width="10" x="249.5" y="198.25"/><text fill="#000000" font-family="sans-serif" font-size="14" lengthAdjust="spacingAndGlyphs" textLength="47" x="264.5" y="195.1738">Dialogs</text><!--entity Audio--><rect fill="#FEFECE" filter="url(#f127m0c8tn9uxu)" height="37.6094" style="stroke: #A80036; stroke-width: 1.5;" width="56" x="357" y="170.6406"/><rect fill="#FEFECE" height="5" style="stroke: #A80036; stroke-width: 1.5;" width="10" x="352" y="175.6406"/><rect fill="#FEFECE" height="5" style="stroke: #A80036; stroke-width: 1.5;" width="10" x="352" y="198.25"/><text fill="#000000" font-family="sans-serif" font-size="14" lengthAdjust="spacingAndGlyphs" textLength="36" x="367" y="195.1738">Audio</text><!--entity Analysis--><rect fill="#FEFECE" filter="url(#f127m0c8tn9uxu)" height="37.6094" style="stroke: #A80036; stroke-width: 1.5;" width="72" x="469" y="170.6406"/><rect fill="#FEFECE" height="5" style="stroke: #A80036; stroke-width: 1.5;" width="10" x="464" y="175.6406"/><rect fill="#FEFECE" height="5" style="stroke: #A80036; stroke-width: 1.5;" width="10" x="464" y="198.25"/><text fill="#000000" font-family="sans-serif" font-size="14" lengthAdjust="spacingAndGlyphs" textLength="52" x="479" y="195.1738">Analysis</text><!--entity Project--><rect fill="#FEFECE" filter="url(#f127m0c8tn9uxu)" height="37.6094" style="stroke: #A80036; stroke-width: 1.5;" width="64" x="576" y="170.6406"/><rect fill="#FEFECE" height="5" style="stroke: #A80036; stroke-width: 1.5;" width="10" x="571" y="175.6406"/><rect fill="#FEFECE" height="5" style="stroke: #A80036; stroke-width: 1.5;" width="10" x="571" y="198.25"/><text fill="#000000" font-family="sans-serif" font-size="14" lengthAdjust="spacingAndGlyphs" textLength="44" x="586" y="195.1738">Project</text><!--entity AudioPlayer (Tone.js)--><rect fill="#FEFECE" filter="url(#f127m0c8tn9uxu)" height="37.6094" style="stroke: #A80036; stroke-width: 1.5;" width="157" x="237.5" y="317.6406"/><rect fill="#FEFECE" height="5" style="stroke: #A80036; stroke-width: 1.5;" width="10" x="232.5" y="322.6406"/><rect fill="#FEFECE" height="5" style="stroke: #A80036; stroke-width: 1.5;" width="10" x="232.5" y="345.25"/><text fill="#000000" font-family="sans-serif" font-size="14" lengthAdjust="spacingAndGlyphs" textLength="137" x="247.5" y="342.1738">AudioPlayer (Tone.js)</text><!--entity Waveform (Peaks.js)--><rect fill="#FEFECE" filter="url(#f127m0c8tn9uxu)" height="37.6094" style="stroke: #A80036; stroke-width: 1.5;" width="151" x="429.5" y="317.6406"/><rect fill="#FEFECE" height="5" style="stroke: #A80036; stroke-width: 1.5;" width="10" x="424.5" y="322.6406"/><rect fill="#FEFECE" height="5" style="stroke: #A80036; stroke-width: 1.5;" width="10" x="424.5" y="345.25"/><text fill="#000000" font-family="sans-serif" font-size="14" lengthAdjust="spacingAndGlyphs" textLength="131" x="439.5" y="342.1738">Waveform (Peaks.js)</text><!--entity Dialog--><rect fill="#FEFECE" filter="url(#f127m0c8tn9uxu)" height="37.6094" style="stroke: #A80036; stroke-width: 1.5;" width="60" x="121" y="317.6406"/><rect fill="#FEFECE" height="5" style="stroke: #A80036; stroke-width: 1.5;" width="10" x="116" y="322.6406"/><rect fill="#FEFECE" height="5" style="stroke: #A80036; stroke-width: 1.5;" width="10" x="116" y="345.25"/><text fill="#000000" font-family="sans-serif" font-size="14" lengthAdjust="spacingAndGlyphs" textLength="40" x="131" y="342.1738">Dialog</text><!--entity Persistence Api--><rect fill="#FEFECE" filter="url(#f127m0c8tn9uxu)" height="37.6094" style="stroke: #A80036; stroke-width: 1.5;" width="118" x="637" y="317.6406"/><rect fill="#FEFECE" height="5" style="stroke: #A80036; stroke-width: 1.5;" width="10" x="632" y="322.6406"/><rect fill="#FEFECE" height="5" style="stroke: #A80036; stroke-width: 1.5;" width="10" x="632" y="345.25"/><text fill="#000000" font-family="sans-serif" font-size="14" lengthAdjust="spacingAndGlyphs" textLength="98" x="647" y="342.1738">Persistence Api</text><!--entity Project File--><rect fill="#FEFECE" filter="url(#f127m0c8tn9uxu)" height="37.6094" style="stroke: #A80036; stroke-width: 1.5;" width="91" x="650.5" y="481.6406"/><rect fill="#FEFECE" height="5" style="stroke: #A80036; stroke-width: 1.5;" width="10" x="645.5" y="486.6406"/><rect fill="#FEFECE" height="5" style="stroke: #A80036; stroke-width: 1.5;" width="10" x="645.5" y="509.25"/><text fill="#000000" font-family="sans-serif" font-size="14" lengthAdjust="spacingAndGlyphs" textLength="71" x="660.5" y="506.1738">Project File</text><!--link Project to Persistence Api--><path d="M618.967,208.7116 C634.974,235.0866 664.726,284.1096 682.199,312.9006 " fill="none" id="Project-Persistence Api" style="stroke: #A80036; stroke-width: 1.0;"/><polygon fill="#A80036" points="684.894,317.3416,683.6437,307.5725,682.2997,313.0673,676.8048,311.7233,684.894,317.3416" style="stroke: #A80036; stroke-width: 1.0;"/><!--link Analysis to Persistence Api--><path d="M516.43,208.8626 C526.266,223.3506 541.595,243.3306 559,256.6406 C573.697,267.8796 580.676,264.9316 597,273.6406 C620.455,286.1536 645.847,302.1086 665.043,314.6996 " fill="none" id="Analysis-Persistence Api" style="stroke: #A80036; stroke-width: 1.0;"/><polygon fill="#A80036" points="669.288,317.4956,663.9716,309.2049,665.1122,314.7456,659.5715,315.8862,669.288,317.4956" style="stroke: #A80036; stroke-width: 1.0;"/><!--link Persistence Api to Project File--><path d="M681.251,355.8136 C668.279,374.0176 652.41,403.0726 659,429.6406 C663.222,446.6616 672.425,464.1027 680.596,477.3177 " fill="none" id="Persistence Api-Project File" style="stroke: #A80036; stroke-width: 1.0;"/><polygon fill="#A80036" points="683.319,481.6306,681.8958,471.8851,680.6494,477.403,675.1316,476.1565,683.319,481.6306" style="stroke: #A80036; stroke-width: 1.0;"/><text fill="#000000" font-family="sans-serif" font-size="13" lengthAdjust="spacingAndGlyphs" textLength="26" x="660" y="426.1357">save</text><!--link Persistence Api to Project File--><path d="M696,361.2886 C696,393.8106 696,451.6617 696,481.1903 " fill="none" id="Persistence Api-Project File-1" style="stroke: #A80036; stroke-width: 1.0;"/><polygon fill="#A80036" points="696,355.9096,692,364.9096,696,360.9096,700,364.9096,696,355.9096" style="stroke: #A80036; stroke-width: 1.0;"/><text fill="#000000" font-family="sans-serif" font-size="13" lengthAdjust="spacingAndGlyphs" textLength="28" x="697" y="426.1357">open</text><!--link Dialogs to Dialog--><path d="M270.926,208.7116 C245.801,235.3036 198.924,284.9176 171.817,313.6076 " fill="none" id="Dialogs-Dialog" style="stroke: #A80036; stroke-width: 1.0;"/><polygon fill="#A80036" points="168.289,317.3416,177.3777,313.5475,171.7231,313.7075,171.5631,308.0529,168.289,317.3416" style="stroke: #A80036; stroke-width: 1.0;"/><!--link Analysis to Waveform (Peaks.js)--><path d="M505,208.7116 C505,234.8696 505,283.3036 505,312.1856 " fill="none" id="Analysis-Waveform (Peaks.js)" style="stroke: #A80036; stroke-width: 1.0;"/><polygon fill="#A80036" points="505,317.3416,509,308.3416,505,312.3416,501,308.3416,505,317.3416" style="stroke: #A80036; stroke-width: 1.0;"/><!--link Audio to AudioPlayer (Tone.js)--><path d="M376.401,208.7116 C363.901,234.9776 340.714,283.7056 326.991,312.5446 " fill="none" id="Audio-AudioPlayer (Tone.js)" style="stroke: #A80036; stroke-width: 1.0;"/><polygon fill="#A80036" points="324.708,317.3416,332.1876,310.9341,326.8568,312.8269,324.964,307.4961,324.708,317.3416" style="stroke: #A80036; stroke-width: 1.0;"/><!--
@startuml Application State Overview

title     Application State Overview

frame "Application" {

    package "Redux State" {
        package "Runtime State" {
            [Dialogs]
            [Audio]
        }
        package "Persisted State" {
            [Analysis]
            [Project]
        }
    }

    package AudioMiddleware {
        [AudioPlayer (Tone.js)]
        [Waveform (Peaks.js)]
    }

    package DialogManagement {
        [Dialog]
    }

    package  Api {
        [Persistence Api]
    }

}

frame "File System" {
    [Project File]
}

[Project] - -> [Persistence Api]
[Analysis] - -> [Persistence Api] 
[Persistence Api] - -> [Project File] : save
[Persistence Api] <- - [Project File] : open
[Dialogs] - -> [Dialog]
[Analysis] - -> [Waveform (Peaks.js)]
[Audio] - -> [AudioPlayer (Tone.js)]

@enduml

PlantUML version 1.2019.06(Fri May 24 19:10:25 CEST 2019)
(GPL source distribution)
Java Runtime: OpenJDK Runtime Environment
JVM: OpenJDK 64-Bit Server VM
Java Version: 12.0.2+10
Operating System: Windows 10
OS Version: 10.0
Default Encoding: Cp1252
Language: de
Country: DE
--></g></svg>