<?xml version="1.0" encoding="UTF-8" standalone="no"?><svg xmlns="http://www.w3.org/2000/svg" xmlns:xlink="http://www.w3.org/1999/xlink" contentScriptType="application/ecmascript" contentStyleType="text/css" height="546px" preserveAspectRatio="none" style="width:806px;height:546px;" version="1.1" viewBox="0 0 806 546" width="806px" zoomAndPan="magnify"><defs><filter height="300%" id="fpkhq1ijoulp" width="300%" x="-1" y="-1"><feGaussianBlur result="blurOut" stdDeviation="2.0"/><feColorMatrix in="blurOut" result="blurOut2" type="matrix" values="0 0 0 0 0 0 0 0 0 0 0 0 0 0 0 0 0 0 .4 0"/><feOffset dx="4.0" dy="4.0" in="blurOut2" result="blurOut3"/><feBlend in="SourceGraphic" in2="blurOut3" mode="normal"/></filter></defs><g><text fill="#000000" font-family="sans-serif" font-size="18" lengthAdjust="spacingAndGlyphs" textLength="214" x="307.5" y="18.6855">Application State Overview</text><!--cluster Application--><rect fill="#FFFFFF" filter="url(#fpkhq1ijoulp)" height="349" style="stroke: #000000; stroke-width: 1.5;" width="773" x="22" y="46.6406"/><path d="M110,47.6406 L110,57.25 L100,67.25 L22,67.25 " fill="none" style="stroke: #000000; stroke-width: 1.5;"/><text fill="#000000" font-family="sans-serif" font-size="14" font-weight="bold" lengthAdjust="spacingAndGlyphs" textLength="78" x="25" y="62.1738">Application</text><!--cluster State--><polygon fill="#FFFFFF" filter="url(#fpkhq1ijoulp)" points="186,90.6406,228,90.6406,235,114.25,743,114.25,743,248.6406,186,248.6406,186,90.6406" style="stroke: #000000; stroke-width: 1.5;"/><line style="stroke: #000000; stroke-width: 1.5;" x1="186" x2="235" y1="114.25" y2="114.25"/><text fill="#000000" font-family="sans-serif" font-size="14" font-weight="bold" lengthAdjust="spacingAndGlyphs" textLength="36" x="190" y="107.1738">State</text><!--cluster UI State--><polygon fill="#FFFFFF" filter="url(#fpkhq1ijoulp)" points="210,134.6406,270,134.6406,277,158.25,492,158.25,492,224.6406,210,224.6406,210,134.6406" style="stroke: #000000; stroke-width: 1.5;"/><line style="stroke: #000000; stroke-width: 1.5;" x1="210" x2="277" y1="158.25" y2="158.25"/><text fill="#000000" font-family="sans-serif" font-size="14" font-weight="bold" lengthAdjust="spacingAndGlyphs" textLength="54" x="214" y="151.1738">UI State</text><!--cluster Persisted State--><polygon fill="#FFFFFF" filter="url(#fpkhq1ijoulp)" points="516,134.6406,629,134.6406,636,158.25,719,158.25,719,224.6406,516,224.6406,516,134.6406" style="stroke: #000000; stroke-width: 1.5;"/><line style="stroke: #000000; stroke-width: 1.5;" x1="516" x2="636" y1="158.25" y2="158.25"/><text fill="#000000" font-family="sans-serif" font-size="14" font-weight="bold" lengthAdjust="spacingAndGlyphs" textLength="107" x="520" y="151.1738">Persisted State</text><!--cluster AudioManagment--><polygon fill="#FFFFFF" filter="url(#fpkhq1ijoulp)" points="221,281.6406,349,281.6406,356,305.25,597,305.25,597,371.6406,221,371.6406,221,281.6406" style="stroke: #000000; stroke-width: 1.5;"/><line style="stroke: #000000; stroke-width: 1.5;" x1="221" x2="356" y1="305.25" y2="305.25"/><text fill="#000000" font-family="sans-serif" font-size="14" font-weight="bold" lengthAdjust="spacingAndGlyphs" textLength="122" x="225" y="298.1738">AudioManagment</text><!--cluster DialogManagement--><polygon fill="#FFFFFF" filter="url(#fpkhq1ijoulp)" points="46,281.6406,187,281.6406,194,305.25,197,305.25,197,371.6406,46,371.6406,46,281.6406" style="stroke: #000000; stroke-width: 1.5;"/><line style="stroke: #000000; stroke-width: 1.5;" x1="46" x2="194" y1="305.25" y2="305.25"/><text fill="#000000" font-family="sans-serif" font-size="14" font-weight="bold" lengthAdjust="spacingAndGlyphs" textLength="135" x="50" y="298.1738">DialogManagement</text><!--cluster Api--><polygon fill="#FFFFFF" filter="url(#fpkhq1ijoulp)" points="621,281.6406,649,281.6406,656,305.25,771,305.25,771,371.6406,621,371.6406,621,281.6406" style="stroke: #000000; stroke-width: 1.5;"/><line style="stroke: #000000; stroke-width: 1.5;" x1="621" x2="656" y1="305.25" y2="305.25"/><text fill="#000000" font-family="sans-serif" font-size="14" font-weight="bold" lengthAdjust="spacingAndGlyphs" textLength="22" x="625" y="298.1738">Api</text><!--cluster File System--><rect fill="#FFFFFF" filter="url(#fpkhq1ijoulp)" height="90" style="stroke: #000000; stroke-width: 1.5;" width="124" x="634" y="445.6406"/><path d="M724,446.6406 L724,456.25 L714,466.25 L634,466.25 " fill="none" style="stroke: #000000; stroke-width: 1.5;"/><text fill="#000000" font-family="sans-serif" font-size="14" font-weight="bold" lengthAdjust="spacingAndGlyphs" textLength="80" x="637" y="461.1738">File System</text><!--entity Wave--><rect fill="#FEFECE" filter="url(#fpkhq1ijoulp)" height="37.6094" style="stroke: #A80036; stroke-width: 1.5;" width="56" x="420" y="170.6406"/><rect fill="#FEFECE" height="5" style="stroke: #A80036; stroke-width: 1.5;" width="10" x="415" y="175.6406"/><rect fill="#FEFECE" height="5" style="stroke: #A80036; stroke-width: 1.5;" width="10" x="415" y="198.25"/><text fill="#000000" font-family="sans-serif" font-size="14" lengthAdjust="spacingAndGlyphs" textLength="36" x="430" y="195.1738">Wave</text><!--entity Dialogs--><rect fill="#FEFECE" filter="url(#fpkhq1ijoulp)" height="37.6094" style="stroke: #A80036; stroke-width: 1.5;" width="67" x="226.5" y="170.6406"/><rect fill="#FEFECE" height="5" style="stroke: #A80036; stroke-width: 1.5;" width="10" x="221.5" y="175.6406"/><rect fill="#FEFECE" height="5" style="stroke: #A80036; stroke-width: 1.5;" width="10" x="221.5" y="198.25"/><text fill="#000000" font-family="sans-serif" font-size="14" lengthAdjust="spacingAndGlyphs" textLength="47" x="236.5" y="195.1738">Dialogs</text><!--entity Audio--><rect fill="#FEFECE" filter="url(#fpkhq1ijoulp)" height="37.6094" style="stroke: #A80036; stroke-width: 1.5;" width="56" x="329" y="170.6406"/><rect fill="#FEFECE" height="5" style="stroke: #A80036; stroke-width: 1.5;" width="10" x="324" y="175.6406"/><rect fill="#FEFECE" height="5" style="stroke: #A80036; stroke-width: 1.5;" width="10" x="324" y="198.25"/><text fill="#000000" font-family="sans-serif" font-size="14" lengthAdjust="spacingAndGlyphs" textLength="36" x="339" y="195.1738">Audio</text><!--entity Analysis--><rect fill="#FEFECE" filter="url(#fpkhq1ijoulp)" height="37.6094" style="stroke: #A80036; stroke-width: 1.5;" width="72" x="532" y="170.6406"/><rect fill="#FEFECE" height="5" style="stroke: #A80036; stroke-width: 1.5;" width="10" x="527" y="175.6406"/><rect fill="#FEFECE" height="5" style="stroke: #A80036; stroke-width: 1.5;" width="10" x="527" y="198.25"/><text fill="#000000" font-family="sans-serif" font-size="14" lengthAdjust="spacingAndGlyphs" textLength="52" x="542" y="195.1738">Analysis</text><!--entity Project--><rect fill="#FEFECE" filter="url(#fpkhq1ijoulp)" height="37.6094" style="stroke: #A80036; stroke-width: 1.5;" width="64" x="639" y="170.6406"/><rect fill="#FEFECE" height="5" style="stroke: #A80036; stroke-width: 1.5;" width="10" x="634" y="175.6406"/><rect fill="#FEFECE" height="5" style="stroke: #A80036; stroke-width: 1.5;" width="10" x="634" y="198.25"/><text fill="#000000" font-family="sans-serif" font-size="14" lengthAdjust="spacingAndGlyphs" textLength="44" x="649" y="195.1738">Project</text><!--entity AudioPlayer (Tone.js)--><rect fill="#FEFECE" filter="url(#fpkhq1ijoulp)" height="37.6094" style="stroke: #A80036; stroke-width: 1.5;" width="157" x="237.5" y="317.6406"/><rect fill="#FEFECE" height="5" style="stroke: #A80036; stroke-width: 1.5;" width="10" x="232.5" y="322.6406"/><rect fill="#FEFECE" height="5" style="stroke: #A80036; stroke-width: 1.5;" width="10" x="232.5" y="345.25"/><text fill="#000000" font-family="sans-serif" font-size="14" lengthAdjust="spacingAndGlyphs" textLength="137" x="247.5" y="342.1738">AudioPlayer (Tone.js)</text><!--entity Waveform (Peaks.js)--><rect fill="#FEFECE" filter="url(#fpkhq1ijoulp)" height="37.6094" style="stroke: #A80036; stroke-width: 1.5;" width="151" x="429.5" y="317.6406"/><rect fill="#FEFECE" height="5" style="stroke: #A80036; stroke-width: 1.5;" width="10" x="424.5" y="322.6406"/><rect fill="#FEFECE" height="5" style="stroke: #A80036; stroke-width: 1.5;" width="10" x="424.5" y="345.25"/><text fill="#000000" font-family="sans-serif" font-size="14" lengthAdjust="spacingAndGlyphs" textLength="131" x="439.5" y="342.1738">Waveform (Peaks.js)</text><!--entity Dialog--><rect fill="#FEFECE" filter="url(#fpkhq1ijoulp)" height="37.6094" style="stroke: #A80036; stroke-width: 1.5;" width="60" x="121" y="317.6406"/><rect fill="#FEFECE" height="5" style="stroke: #A80036; stroke-width: 1.5;" width="10" x="116" y="322.6406"/><rect fill="#FEFECE" height="5" style="stroke: #A80036; stroke-width: 1.5;" width="10" x="116" y="345.25"/><text fill="#000000" font-family="sans-serif" font-size="14" lengthAdjust="spacingAndGlyphs" textLength="40" x="131" y="342.1738">Dialog</text><!--entity Persistence Api--><rect fill="#FEFECE" filter="url(#fpkhq1ijoulp)" height="37.6094" style="stroke: #A80036; stroke-width: 1.5;" width="118" x="637" y="317.6406"/><rect fill="#FEFECE" height="5" style="stroke: #A80036; stroke-width: 1.5;" width="10" x="632" y="322.6406"/><rect fill="#FEFECE" height="5" style="stroke: #A80036; stroke-width: 1.5;" width="10" x="632" y="345.25"/><text fill="#000000" font-family="sans-serif" font-size="14" lengthAdjust="spacingAndGlyphs" textLength="98" x="647" y="342.1738">Persistence Api</text><!--entity Project File--><rect fill="#FEFECE" filter="url(#fpkhq1ijoulp)" height="37.6094" style="stroke: #A80036; stroke-width: 1.5;" width="91" x="650.5" y="481.6406"/><rect fill="#FEFECE" height="5" style="stroke: #A80036; stroke-width: 1.5;" width="10" x="645.5" y="486.6406"/><rect fill="#FEFECE" height="5" style="stroke: #A80036; stroke-width: 1.5;" width="10" x="645.5" y="509.25"/><text fill="#000000" font-family="sans-serif" font-size="14" lengthAdjust="spacingAndGlyphs" textLength="71" x="660.5" y="506.1738">Project File</text><!--link Project to Persistence Api--><path d="M674.116,208.7116 C678.626,234.8696 686.976,283.3036 691.956,312.1856 " fill="none" id="Project-Persistence Api" style="stroke: #A80036; stroke-width: 1.0;"/><polygon fill="#A80036" points="692.845,317.3416,695.2568,307.7926,691.995,312.4144,687.3732,309.1526,692.845,317.3416" style="stroke: #A80036; stroke-width: 1.0;"/><!--link Analysis to Persistence Api--><path d="M582.348,208.8396 C593.05,222.2476 608.15,240.8246 622,256.6406 C639.234,276.3206 659.606,297.9566 674.607,313.6026 " fill="none" id="Analysis-Persistence Api" style="stroke: #A80036; stroke-width: 1.0;"/><polygon fill="#A80036" points="678.3,317.4466,674.949,308.1854,674.8359,313.8411,669.1802,313.728,678.3,317.4466" style="stroke: #A80036; stroke-width: 1.0;"/><!--link Persistence Api to Project File--><path d="M681.251,355.8136 C668.279,374.0176 652.41,403.0726 659,429.6406 C663.222,446.6616 672.425,464.1027 680.596,477.3177 " fill="none" id="Persistence Api-Project File" style="stroke: #A80036; stroke-width: 1.0;"/><polygon fill="#A80036" points="683.319,481.6306,681.8958,471.8851,680.6494,477.403,675.1316,476.1565,683.319,481.6306" style="stroke: #A80036; stroke-width: 1.0;"/><text fill="#000000" font-family="sans-serif" font-size="13" lengthAdjust="spacingAndGlyphs" textLength="26" x="660" y="426.1357">save</text><!--link Persistence Api to Project File--><path d="M696,361.2886 C696,393.8106 696,451.6617 696,481.1903 " fill="none" id="Persistence Api-Project File-1" style="stroke: #A80036; stroke-width: 1.0;"/><polygon fill="#A80036" points="696,355.9096,692,364.9096,696,360.9096,700,364.9096,696,355.9096" style="stroke: #A80036; stroke-width: 1.0;"/><text fill="#000000" font-family="sans-serif" font-size="13" lengthAdjust="spacingAndGlyphs" textLength="28" x="697" y="426.1357">open</text><!--link Dialogs to Dialog--><path d="M246.415,208.7116 C226.507,235.1956 189.434,284.5126 167.827,313.2556 " fill="none" id="Dialogs-Dialog" style="stroke: #A80036; stroke-width: 1.0;"/><polygon fill="#A80036" points="164.756,317.3416,173.3609,312.5505,167.7601,313.3447,166.9659,307.7439,164.756,317.3416" style="stroke: #A80036; stroke-width: 1.0;"/><!--link Wave to Waveform (Peaks.js)--><path d="M455.104,208.7116 C465.429,234.9776 484.584,283.7056 495.921,312.5446 " fill="none" id="Wave-Waveform (Peaks.js)" style="stroke: #A80036; stroke-width: 1.0;"/><polygon fill="#A80036" points="497.807,317.3416,498.2353,307.5021,495.9769,312.6886,490.7904,310.4302,497.807,317.3416" style="stroke: #A80036; stroke-width: 1.0;"/><!--link Analysis to Waveform (Peaks.js)--><path d="M560.148,208.7116 C548.736,234.9776 527.565,283.7056 515.035,312.5446 " fill="none" id="Analysis-Waveform (Peaks.js)" style="stroke: #A80036; stroke-width: 1.0;"/><polygon fill="#A80036" points="512.951,317.3416,520.2067,310.6817,514.9438,312.7559,512.8696,307.4931,512.951,317.3416" style="stroke: #A80036; stroke-width: 1.0;"/><!--link Audio to AudioPlayer (Tone.js)--><path d="M351.89,208.7116 C344.494,234.8696 330.799,283.3036 322.632,312.1856 " fill="none" id="Audio-AudioPlayer (Tone.js)" style="stroke: #A80036; stroke-width: 1.0;"/><polygon fill="#A80036" points="321.174,317.3416,327.4712,309.769,322.534,312.5301,319.7728,307.5929,321.174,317.3416" style="stroke: #A80036; stroke-width: 1.0;"/><!--
@startuml Application State Overview

title     Application State Overview

frame "Application" {

    package State {
        package "UI State" {
            [Wave]
            [Dialogs]
            [Audio]
        }
        package "Persisted State" {
            [Analysis]
            [Project]
        }
    }

    package AudioManagment {
        [AudioPlayer (Tone.js)]
        [Waveform (Peaks.js)]
    }

    package DialogManagement {
        [Dialog]
    }

    package  Api {
        [Persistence Api]
    }

}

frame "File System" {
    [Project File]
}

[Project] - -> [Persistence Api]
[Analysis] - -> [Persistence Api] 
[Persistence Api] - -> [Project File] : save
[Persistence Api] <- - [Project File] : open
[Dialogs] - -> [Dialog]
[Wave] - -> [Waveform (Peaks.js)]
[Analysis] - -> [Waveform (Peaks.js)]
[Audio] - -> [AudioPlayer (Tone.js)]

@enduml

PlantUML version 1.2019.06(Fri May 24 19:10:25 CEST 2019)
(GPL source distribution)
Java Runtime: OpenJDK Runtime Environment
JVM: OpenJDK 64-Bit Server VM
Java Version: 12.0.2+10
Operating System: Windows 10
OS Version: 10.0
Default Encoding: Cp1252
Language: de
Country: DE
--></g></svg>